<?xml version="1.0" encoding="UTF-8" standalone="no"?>
<!-- Created with Inkscape (http://www.inkscape.org/) -->

<svg
   xmlns:dc="http://purl.org/dc/elements/1.1/"
   xmlns:cc="http://creativecommons.org/ns#"
   xmlns:rdf="http://www.w3.org/1999/02/22-rdf-syntax-ns#"
   xmlns:svg="http://www.w3.org/2000/svg"
   xmlns="http://www.w3.org/2000/svg"
   xmlns:sodipodi="http://sodipodi.sourceforge.net/DTD/sodipodi-0.dtd"
   xmlns:inkscape="http://www.inkscape.org/namespaces/inkscape"
   version="1.1"
   width="128"
   height="128"
   id="svg2"
   xml:space="preserve"
   inkscape:version="0.48.4 r9939"
   sodipodi:docname="icon.svg"
   inkscape:export-filename="icon.png"
   inkscape:export-xdpi="90"
   inkscape:export-ydpi="90"><sodipodi:namedview
     pagecolor="#ffffff"
     bordercolor="#666666"
     borderopacity="1"
     objecttolerance="10"
     gridtolerance="10"
     guidetolerance="10"
     inkscape:pageopacity="0"
     inkscape:pageshadow="2"
     inkscape:window-width="1861"
     inkscape:window-height="1176"
     id="namedview14"
     showgrid="false"
     inkscape:zoom="3.0544432"
     inkscape:cx="41.48345"
     inkscape:cy="73.434759"
     inkscape:window-x="59"
     inkscape:window-y="24"
     inkscape:window-maximized="1"
     inkscape:current-layer="svg2" /><metadata
     id="metadata8"><rdf:RDF><cc:Work
         rdf:about=""><dc:format>image/svg+xml</dc:format><dc:type
           rdf:resource="http://purl.org/dc/dcmitype/StillImage" /><dc:title /></cc:Work></rdf:RDF></metadata><defs
     id="defs6"><clipPath
       id="clipPath18"><path
         d="m 0,0 3838,0 0,1853.86 -3838,0 L 0,0 z"
         id="path20"
         inkscape:connector-curvature="0" /></clipPath></defs><g
     transform="matrix(0.41437929,0,0,-0.41437929,-15.541389,79.843036)"
     id="g10"><path
       d="m 8.03125,109.875 c -1.512125,0 -2.805625,0.23238 -3.875,0.6875 -1.069375,0.45513 -1.900375,1.12838 -2.46875,2 -0.568375,0.87013 -0.84375,1.78275 -0.84375,2.78125 0,1.55525 0.6075,2.88862 1.8125,3.96875 0.857,0.769 2.34375,1.41263 4.46875,1.9375 1.65175,0.40962 2.723125,0.685 3.1875,0.84375 0.67875,0.24363 1.134375,0.54788 1.40625,0.875 0.2725,0.32912 0.40625,0.72125 0.40625,1.1875 0,0.7275 -0.319875,1.36225 -0.96875,1.90625 -0.6495,0.5425 -1.626375,0.8125 -2.90625,0.8125 -1.2085,0 -2.163,-0.32625 -2.875,-0.9375 -0.711375,-0.61237 -1.17375,-1.54 -1.40625,-2.84375 l -3.875,0.375 c 0.25925,2.21738 1.07175,3.90525 2.40625,5.0625 1.3345,1.15763 3.2285,1.75 5.71875,1.75 1.711,0 3.13475,-0.27 4.28125,-0.75 1.146,-0.48 2.060625,-1.20012 2.6875,-2.1875 0.627,-0.98775 0.9375,-2.05525 0.9375,-3.1875 0,-1.24763 -0.258375,-2.27488 -0.78125,-3.125 -0.5235,-0.84763 -1.26225,-1.54237 -2.1875,-2.03125 -0.92575,-0.49012 -2.349125,-0.95113 -4.28125,-1.40625 -1.932125,-0.45362 -3.15625,-0.8925 -3.65625,-1.3125 -0.394125,-0.3325 -0.59375,-0.72113 -0.59375,-1.1875 0,-0.50975 0.204125,-0.91513 0.625,-1.21875 0.65325,-0.47513 1.564,-0.71875 2.71875,-0.71875 1.118125,0 1.971625,0.213 2.53125,0.65625 0.559125,0.44537 0.923375,1.17525 1.09375,2.1875 l 3.96875,-0.15625 c -0.063,-1.8125 -0.720125,-3.25787 -1.96875,-4.34375 -1.2485,-1.085 -3.09225,-1.625 -5.5625,-1.625 z m 12.21875,0.34375 0,3.5 3.78125,0 0,-3.5 -3.78125,0 z m 43.71875,0 0,19.6875 3.78125,0 0,-19.6875 -3.78125,0 z m 33.125,0 0,19.6875 14.9375,0 0,-3.3125 -10.96875,0 0,-5.34375 9.84375,0 0,-3.3125 -9.84375,0 0,-4.375 10.59375,0 0,-3.34375 -14.5625,0 z m 74.40625,0 0,19.6875 3.96875,0 0,-7.40625 2.59375,0 c 1.79625,0 3.17625,-0.0923 4.125,-0.28125 0.6975,-0.15237 1.3875,-0.46625 2.0625,-0.9375 0.675,-0.47012 1.21875,-1.11525 1.65625,-1.9375 0.43875,-0.82675 0.65625,-1.8535 0.65625,-3.0625 0,-1.56738 -0.36375,-2.855 -1.125,-3.84375 -0.76125,-0.98975 -1.71625,-1.61137 -2.84375,-1.90625 -0.73375,-0.19625 -2.3025,-0.3125 -4.71875,-0.3125 l -6.375,0 z m 150.5625,0 -7.625,19.6875 4.21875,0 1.625,-4.4375 7.9375,0 1.71875,4.4375 4.28125,0 -7.9375,-19.6875 -4.21875,0 z m -36.25,0.375 -3.78125,2.21875 0,2.84375 -1.71875,0 0,3 1.71875,0 0,6.25 c 0,1.3365 0.0437,2.21625 0.125,2.65625 0.0975,0.61912 0.2775,1.10638 0.53125,1.46875 0.255,0.36375 0.645,0.67875 1.1875,0.90625 0.54375,0.229 1.165,0.34375 1.84375,0.34375 1.10375,0 2.095,-0.21738 2.96875,-0.59375 l -0.34375,-2.90625 c -0.6525,0.24113 -1.155,0.375 -1.5,0.375 -0.24625,0 -0.4525,-0.0937 -0.625,-0.21875 -0.17125,-0.12638 -0.265,-0.27487 -0.3125,-0.46875 -0.0487,-0.19237 -0.0937,-0.86375 -0.0937,-2.03125 l 0,-5.78125 2.59375,0 0,-3 -2.59375,0 0,-5.0625 z m -110.34375,2.96875 1.90625,0 c 1.43,0 2.40125,0.0348 2.875,0.125 0.6425,0.11725 1.17375,0.40625 1.59375,0.875 0.42,0.46875 0.625,1.06 0.625,1.78125 0,0.58637 -0.13875,1.08988 -0.4375,1.53125 -0.29875,0.44237 -0.72375,0.7925 -1.25,1 -0.5275,0.2075 -1.5625,0.3125 -3.125,0.3125 l -2.1875,0 0,-5.625 z m 148.6875,1.28125 2.75,7.3125 -5.40625,0 2.65625,-7.3125 z M 36.9375,115.3125 c -1.88875,0 -3.475125,0.80662 -4.71875,2.4375 l 0,-2.09375 -3.5,0 0,14.25 3.78125,0 0,-6.46875 c 0,-1.59763 0.08937,-2.6905 0.28125,-3.28125 0.191375,-0.59288 0.544875,-1.079 1.0625,-1.4375 0.517125,-0.35888 1.099125,-0.53125 1.75,-0.53125 0.50775,0 0.95125,0.125 1.3125,0.375 0.361375,0.25088 0.620625,0.60975 0.78125,1.0625 0.160625,0.45213 0.25,1.4575 0.25,3 l 0,7.28125 3.78125,0 0,-8.875 c 0,-1.10262 -0.08,-1.94 -0.21875,-2.53125 -0.139125,-0.59238 -0.36525,-1.12738 -0.71875,-1.59375 -0.354,-0.46625 -0.8735,-0.85637 -1.5625,-1.15625 -0.689375,-0.30025 -1.44875,-0.4375 -2.28125,-0.4375 z m 14.59375,0 c -1.7115,0 -3.130375,0.61125 -4.28125,1.875 -1.151375,1.26512 -1.75,3.105 -1.75,5.5 0,1.91012 0.465375,3.4985 1.34375,4.78125 1.120125,1.6235 2.61375,2.4375 4.53125,2.4375 1.72025,0 3.1645,-0.75975 4.28125,-2.28125 l -0.03125,2.09375 c 0,0.84238 -0.03963,1.40387 -0.15625,1.71875 -0.170875,0.439 -0.44975,0.771 -0.78125,0.96875 -0.494625,0.295 -1.231,0.4375 -2.21875,0.4375 -0.773,0 -1.328125,-0.15225 -1.6875,-0.4375 -0.26075,-0.19963 -0.42825,-0.5625 -0.5,-1.09375 l -4.3125,-0.46875 c -0.0093,0.18113 0,0.34275 0,0.46875 0,1.28125 0.517625,2.32237 1.53125,3.15625 1.01325,0.8335 2.703625,1.28125 5.125,1.28125 1.28175,0 2.348625,-0.13725 3.1875,-0.40625 0.838375,-0.26863 1.52925,-0.64988 2.03125,-1.125 0.502375,-0.47512 0.877875,-1.13325 1.15625,-1.96875 0.277375,-0.832 0.40625,-2.09525 0.40625,-3.78125 l 0,-12.8125 -3.5,0 0,1.96875 c -1.1485,-1.55025 -2.609875,-2.3125 -4.375,-2.3125 z m 26.34375,0 c -1.89375,0 -3.448125,0.65625 -4.6875,2 -1.238875,1.34375 -1.875,3.22362 -1.875,5.59375 0,1.98725 0.493625,3.604 1.4375,4.90625 1.194,1.62638 3.0425,2.46875 5.53125,2.46875 1.57125,0 2.86,-0.374 3.90625,-1.09375 1.04625,-0.71875 1.8275,-1.751 2.3125,-3.125 l -3.75,-0.625 c -0.2075,0.71237 -0.53125,1.21087 -0.9375,1.53125 -0.40625,0.32075 -0.90375,0.5 -1.5,0.5 -0.8775,0 -1.6,-0.315 -2.1875,-0.9375 -0.5875,-0.625 -0.91125,-1.503 -0.9375,-2.625 l 9.5,0 c 0.05375,-2.91025 -0.52,-5.08888 -1.75,-6.5 -1.23,-1.40925 -2.93375,-2.09375 -5.0625,-2.09375 z m 62.53125,0 c -0.61,0 -1.145,0.15488 -1.625,0.46875 -0.48,0.315 -1.02375,0.94875 -1.625,1.90625 l 0,-2.03125 -3.53125,0 0,14.25 3.8125,0 0,-4.40625 c 0,-2.42725 0.10125,-4.0195 0.3125,-4.78125 0.21125,-0.76125 0.50625,-1.30125 0.875,-1.59375 0.36875,-0.29 0.8125,-0.40625 1.34375,-0.40625 0.5475,0 1.14375,0.18263 1.78125,0.59375 l 1.15625,-3.28125 c -0.7975,-0.476 -1.64,-0.71875 -2.5,-0.71875 z m 11.375,0 c -1.3975,0 -2.68,0.31737 -3.8125,0.9375 -1.13375,0.62012 -2.0075,1.51125 -2.625,2.6875 -0.61875,1.17725 -0.90625,2.399 -0.90625,3.65625 0,1.646 0.2875,3.0415 0.90625,4.1875 0.6175,1.1465 1.53125,2 2.71875,2.59375 1.18625,0.59125 2.4425,0.90625 3.75,0.90625 2.11375,0 3.8575,-0.73237 5.25,-2.15625 1.3925,-1.42375 2.09375,-3.20987 2.09375,-5.375 0,-2.14738 -0.68375,-3.9375 -2.0625,-5.34375 -1.38,-1.40625 -3.15375,-2.09375 -5.3125,-2.09375 z m 44.40625,0 c -1.85375,0 -3.2775,0.3365 -4.21875,1 -0.94,0.66362 -1.58375,1.68113 -1.96875,3.0625 l 3.40625,0.625 c 0.2325,-0.6665 0.5275,-1.14013 0.90625,-1.40625 0.37875,-0.26513 0.8875,-0.40625 1.5625,-0.40625 1,0 1.70125,0.15625 2.0625,0.46875 0.36,0.314 0.53125,0.85837 0.53125,1.59375 l 0,0.375 c -0.68125,0.28713 -1.8925,0.57512 -3.65625,0.90625 -1.3075,0.25137 -2.305,0.57137 -3,0.90625 -0.69375,0.3365 -1.23875,0.80475 -1.625,1.4375 -0.38375,0.63238 -0.59375,1.35 -0.59375,2.15625 0,1.21962 0.43625,2.23238 1.28125,3.03125 0.845,0.79738 2.00125,1.21875 3.46875,1.21875 0.8325,0 1.61,-0.18613 2.34375,-0.5 0.73375,-0.315 1.4175,-0.77788 2.0625,-1.40625 0.025,0.0712 0.0625,0.21575 0.125,0.4375 0.14375,0.48475 0.275,0.84763 0.375,1.09375 l 3.75,0 c -0.33125,-0.68112 -0.56625,-1.31012 -0.6875,-1.90625 -0.12,-0.59525 -0.15625,-1.52587 -0.15625,-2.78125 l 0.0312,-4.40625 c 0,-1.64162 -0.16375,-2.76125 -0.5,-3.375 -0.335,-0.61375 -0.92625,-1.12987 -1.75,-1.53125 -0.82375,-0.3975 -2.06625,-0.59375 -3.75,-0.59375 z m 34.28125,0 c -1.725,0 -3.18875,0.74912 -4.4375,2.28125 l 0,-1.9375 -3.5,0 0,14.25 3.8125,0 0,-6.9375 c 0,-1.37262 0.08,-2.34475 0.28125,-2.9375 0.2025,-0.59137 0.535,-1.061 1,-1.375 0.465,-0.31338 1.0125,-0.46875 1.59375,-0.46875 0.48375,0 0.8425,0.11625 1.125,0.3125 0.2825,0.19725 0.49125,0.50238 0.625,0.90625 0.135,0.40475 0.21875,1.29487 0.21875,2.6875 l 0,7.8125 3.78125,0 0,-6.84375 c 0,-1.34475 0.10625,-2.34613 0.3125,-2.96875 0.205,-0.624 0.535,-1.0825 1,-1.40625 0.465,-0.32375 0.97125,-0.5 1.5,-0.5 0.72375,0 1.24375,0.27237 1.59375,0.8125 0.25875,0.412 0.40625,1.3325 0.40625,2.75 l 0,8.15625 3.78125,0 0,-9.125 c 0,-1.36387 -0.1475,-2.35988 -0.40625,-2.96875 -0.35875,-0.82625 -0.89875,-1.45113 -1.625,-1.875 -0.72625,-0.42725 -1.60625,-0.625 -2.65625,-0.625 -0.825,0 -1.585,0.1865 -2.3125,0.5625 -0.725,0.37738 -1.40375,0.92638 -2.03125,1.6875 -0.43,-0.76112 -0.9825,-1.31012 -1.65625,-1.6875 -0.67375,-0.376 -1.49125,-0.5625 -2.40625,-0.5625 z m 23.09375,0 c -1.895,0 -3.47875,0.65625 -4.71875,2 -1.2375,1.34375 -1.84375,3.22362 -1.84375,5.59375 0,1.98725 0.4625,3.604 1.40625,4.90625 1.195,1.62638 3.04375,2.46875 5.53125,2.46875 1.5725,0 2.89,-0.374 3.9375,-1.09375 1.04625,-0.71875 1.795,-1.751 2.28125,-3.125 l -3.75,-0.625 c -0.2075,0.71237 -0.4975,1.21087 -0.90625,1.53125 -0.40625,0.32075 -0.90375,0.5 -1.5,0.5 -0.87875,0 -1.6325,-0.315 -2.21875,-0.9375 -0.5875,-0.625 -0.87875,-1.503 -0.90625,-2.625 l 9.5,0 c 0.0537,-2.91025 -0.55125,-5.08888 -1.78125,-6.5 -1.23,-1.40925 -2.9025,-2.09375 -5.03125,-2.09375 z m 18.875,0 c -1.8875,0 -3.47375,0.80662 -4.71875,2.4375 l 0,-2.09375 -3.5,0 0,14.25 3.78125,0 0,-6.46875 c 0,-1.59763 0.09,-2.6905 0.28125,-3.28125 0.1925,-0.59288 0.545,-1.079 1.0625,-1.4375 0.51625,-0.35888 1.1,-0.53125 1.75,-0.53125 0.5075,0 0.95125,0.125 1.3125,0.375 0.36125,0.25088 0.62,0.60975 0.78125,1.0625 0.15875,0.45213 0.25,1.4575 0.25,3 l 0,7.28125 3.78125,0 0,-8.875 c 0,-1.10262 -0.0788,-1.94 -0.21875,-2.53125 -0.13875,-0.59238 -0.365,-1.12738 -0.71875,-1.59375 -0.35375,-0.46625 -0.87375,-0.85637 -1.5625,-1.15625 -0.6875,-0.30025 -1.44875,-0.4375 -2.28125,-0.4375 z m 24.59375,0 c -2.06125,0 -3.58,0.40625 -4.5625,1.25 -0.98125,0.84225 -1.46875,1.88525 -1.46875,3.125 0,1.37163 0.5525,2.44775 1.6875,3.21875 0.8175,0.55625 2.7825,1.1675 5.84375,1.84375 0.6575,0.15388 1.06,0.31888 1.25,0.5 0.18,0.1875 0.28125,0.43113 0.28125,0.71875 0,0.42525 -0.16875,0.77738 -0.5,1.03125 -0.49125,0.35988 -1.21125,0.53125 -2.1875,0.53125 -0.885,0 -1.57,-0.18363 -2.0625,-0.5625 -0.49125,-0.37838 -0.83875,-0.92775 -1,-1.65625 l -3.78125,0.59375 c 0.34875,1.34762 1.08625,2.40087 2.21875,3.1875 1.1325,0.78375 2.68375,1.1875 4.625,1.1875 2.14,0 3.75,-0.49175 4.84375,-1.4375 1.09125,-0.94538 1.625,-2.061 1.625,-3.375 0,-1.206 -0.3975,-2.16887 -1.1875,-2.84375 -0.80125,-0.6665 -2.2,-1.2275 -4.21875,-1.6875 -2.01875,-0.45987 -3.19,-0.811 -3.53125,-1.0625 -0.2525,-0.18988 -0.40625,-0.416 -0.40625,-0.6875 0,-0.31487 0.14625,-0.5835 0.4375,-0.78125 C 295.37125,118.125 296.12,118 297.125,118 c 0.79625,0 1.38125,0.14113 1.8125,0.4375 0.43,0.29488 0.72125,0.72763 0.875,1.28125 l 3.5625,-0.65625 c -0.36125,-1.23638 -1.015,-2.18025 -1.96875,-2.8125 -0.955,-0.63138 -2.4125,-0.9375 -4.375,-0.9375 z m 46.65625,0 c -0.61125,0 -1.14625,0.15488 -1.625,0.46875 -0.48125,0.315 -1.02375,0.94875 -1.625,1.90625 l 0,-2.03125 -3.5,0 0,14.25 3.78125,0 0,-4.40625 c 0,-2.42725 0.1,-4.0195 0.3125,-4.78125 0.21,-0.76125 0.50625,-1.30125 0.875,-1.59375 0.36875,-0.29 0.81125,-0.40625 1.34375,-0.40625 0.5475,0 1.1425,0.18263 1.78125,0.59375 l 1.15625,-3.28125 c -0.79875,-0.476 -1.64,-0.71875 -2.5,-0.71875 z m 10.40625,0 c -1.89375,0 -3.48125,0.65625 -4.71875,2 -1.24,1.34375 -1.84375,3.22362 -1.84375,5.59375 0,1.98725 0.4625,3.604 1.40625,4.90625 1.19375,1.62638 3.0425,2.46875 5.53125,2.46875 1.57125,0 2.86,-0.374 3.90625,-1.09375 1.04625,-0.71875 1.8275,-1.751 2.3125,-3.125 l -3.75,-0.625 c -0.20875,0.71237 -0.53125,1.21087 -0.9375,1.53125 -0.4075,0.32075 -0.9025,0.5 -1.5,0.5 -0.87625,0 -1.59875,-0.315 -2.1875,-0.9375 -0.58625,-0.625 -0.91,-1.503 -0.9375,-2.625 l 9.5,0 c 0.0537,-2.91025 -0.52125,-5.08888 -1.75,-6.5 -1.23125,-1.40925 -2.90375,-2.09375 -5.03125,-2.09375 z m 16.25,0 c -1.85375,0 -3.2775,0.3365 -4.21875,1 -0.94,0.66362 -1.58375,1.68113 -1.96875,3.0625 L 367.5625,120 c 0.2325,-0.6665 0.52875,-1.14013 0.90625,-1.40625 0.37875,-0.26513 0.8875,-0.40625 1.5625,-0.40625 1,0 1.7025,0.15625 2.0625,0.46875 0.36,0.314 0.53125,0.85837 0.53125,1.59375 l 0,0.375 c -0.68125,0.28713 -1.8925,0.57512 -3.65625,0.90625 -1.3075,0.25137 -2.305,0.57137 -3,0.90625 -0.69375,0.3365 -1.24,0.80475 -1.625,1.4375 -0.385,0.63238 -0.59375,1.35 -0.59375,2.15625 0,1.21962 0.4375,2.23238 1.28125,3.03125 0.845,0.79738 2.00125,1.21875 3.46875,1.21875 0.8325,0 1.61,-0.18613 2.34375,-0.5 0.73375,-0.315 1.4175,-0.77788 2.0625,-1.40625 0.025,0.0712 0.0638,0.21575 0.125,0.4375 0.145,0.48475 0.275,0.84763 0.375,1.09375 l 3.75,0 c -0.33,-0.68112 -0.56625,-1.31012 -0.6875,-1.90625 -0.12,-0.59525 -0.15625,-1.52587 -0.15625,-2.78125 l 0.0312,-4.40625 c 0,-1.64162 -0.16375,-2.76125 -0.5,-3.375 -0.335,-0.61375 -0.92625,-1.12987 -1.75,-1.53125 -0.82375,-0.3975 -2.06625,-0.59375 -3.75,-0.59375 z M 20.25,115.65625 l 0,14.25 3.78125,0 0,-14.25 -3.78125,0 z m 95.84375,0 0,9.03125 c 0,1.34525 0.15875,2.39363 0.5,3.15625 0.34125,0.76125 0.89375,1.35987 1.65625,1.78125 0.76375,0.42138 1.6325,0.65625 2.59375,0.65625 0.9425,0 1.83875,-0.24025 2.6875,-0.6875 0.84875,-0.44875 1.54125,-1.05125 2.0625,-1.8125 l 0,2.125 3.5,0 0,-14.25 -3.78125,0 0,6.03125 c 0,2.0425 -0.0937,3.32037 -0.28125,3.84375 -0.18875,0.52488 -0.55125,0.959 -1.0625,1.3125 -0.51,0.3555 -1.07375,0.53125 -1.71875,0.53125 -0.565,0 -1.03875,-0.1425 -1.40625,-0.40625 -0.3675,-0.26513 -0.61125,-0.60737 -0.75,-1.0625 -0.14,-0.45113 -0.21875,-1.68013 -0.21875,-3.6875 l 0,-6.5625 -3.78125,0 z m 88.8125,0 5.4375,14.3125 c -0.225,0.80525 -0.545,1.44625 -0.96875,1.96875 -0.42375,0.52 -1.085,0.78125 -1.96875,0.78125 -0.47625,0 -1,-0.0371 -1.59375,-0.15625 l 0.34375,2.9375 c 0.69875,0.15238 1.39875,0.25 2.125,0.25 0.7175,0 1.3675,-0.0961 1.9375,-0.25 0.57,-0.15138 1.04625,-0.351 1.4375,-0.625 0.39,-0.27238 0.73125,-0.65525 1.03125,-1.09375 0.3,-0.43988 0.63625,-1.07125 0.96875,-1.90625 l 0.90625,-2.5 5.03125,-13.71875 -3.90625,0 -3.34375,10.125 -3.40625,-10.125 -4.03125,0 z m -152.4375,2.53125 c 0.92325,0 1.67725,0.3765 2.28125,1.09375 0.6045,0.71875 0.90625,1.80125 0.90625,3.28125 0,1.41837 -0.307125,2.49612 -0.9375,3.21875 -0.63075,0.72262 -1.398,1.09375 -2.3125,1.09375 -0.853125,0 -1.57475,-0.3565 -2.15625,-1.0625 -0.5825,-0.70412 -0.875,-1.82625 -0.875,-3.34375 0,-1.44538 0.2925,-2.51275 0.875,-3.21875 0.5815,-0.70362 1.32125,-1.0625 2.21875,-1.0625 z m 25.65625,0 c 0.775,0 1.42875,0.29738 1.96875,0.875 0.54125,0.57863 0.8175,1.42138 0.84375,2.53125 l -5.6875,0 c -0.0088,-1.04637 0.27125,-1.85988 0.8125,-2.46875 0.54,-0.60888 1.23375,-0.9375 2.0625,-0.9375 z m 175.65625,0 c 0.775,0 1.43,0.29738 1.96875,0.875 0.5425,0.57863 0.8475,1.42138 0.875,2.53125 l -5.6875,0 c -0.009,-1.04637 0.24,-1.85988 0.78125,-2.46875 0.53875,-0.60888 1.235,-0.9375 2.0625,-0.9375 z m 100.53125,0 c 0.77375,0 1.4275,0.29738 1.96875,0.875 0.54,0.57863 0.81625,1.42138 0.84375,2.53125 l -5.65625,0 c -0.01,-1.04637 0.24,-1.85988 0.78125,-2.46875 0.54,-0.60888 1.2325,-0.9375 2.0625,-0.9375 z m -202.53125,0.21875 c 0.9875,0 1.83125,0.36963 2.5,1.125 0.66875,0.75337 1,1.81738 1,3.21875 0,1.4375 -0.33125,2.55763 -1,3.3125 -0.66875,0.75488 -1.5125,1.125 -2.5,1.125 -0.98875,0 -1.795,-0.37012 -2.46875,-1.125 -0.67375,-0.75487 -1.03125,-1.86038 -1.03125,-3.28125 0,-1.419 0.3575,-2.49662 1.03125,-3.25 0.67375,-0.75537 1.48,-1.125 2.46875,-1.125 z m 46.6875,4.6875 0,0.75 c 0,0.90875 -0.0588,1.52 -0.15625,1.84375 -0.1425,0.495 -0.42,0.90762 -0.875,1.25 -0.6175,0.44863 -1.29,0.6875 -1.96875,0.6875 -0.60875,0 -1.10625,-0.20762 -1.5,-0.59375 -0.3925,-0.38725 -0.5625,-0.84375 -0.5625,-1.375 0,-0.53913 0.22625,-0.99263 0.71875,-1.34375 0.32,-0.21537 1.0175,-0.43263 2.0625,-0.65625 1.045,-0.22512 1.7975,-0.39987 2.28125,-0.5625 z m 174.15625,0 0,0.75 c 0,0.90875 -0.0587,1.52 -0.15625,1.84375 -0.1425,0.495 -0.42,0.90762 -0.875,1.25 -0.6175,0.44863 -1.29,0.6875 -1.96875,0.6875 -0.60875,0 -1.1075,-0.20762 -1.5,-0.59375 -0.39375,-0.38725 -0.5625,-0.84375 -0.5625,-1.375 0,-0.53913 0.22625,-0.99263 0.71875,-1.34375 0.32125,-0.21537 1.0175,-0.43263 2.0625,-0.65625 1.045,-0.22512 1.79875,-0.39987 2.28125,-0.5625 z"
       transform="matrix(0.8,0,0,-0.8,41.0906,145.918)"
       id="path22"
       style="fill:#2350a9;fill-opacity:1;fill-rule:nonzero;stroke:none"
       inkscape:connector-curvature="0" /><path
       d="m 108.105,119.624 -20.6382,0 c 0,3.387 -0.3977,5.66 -1.1895,6.817 -1.2285,1.712 -4.6179,2.569 -10.166,2.569 -5.3886,0 -8.9597,-0.493 -10.7031,-1.48 -1.7422,-0.99 -2.6144,-3.143 -2.6144,-6.458 0,-3.001 0.7726,-4.977 2.3207,-5.924 1.1082,-0.672 2.5742,-1.067 4.4,-1.185 l 4.1625,-0.294 c 8.9199,-0.592 14.491,-1.009 16.7125,-1.246 7.0546,-0.711 12.1685,-2.587 15.3415,-5.627 2.497,-2.372 3.986,-5.472 4.461,-9.2995 0.278,-2.2903 0.416,-4.882 0.416,-7.761 0,-6.6355 -0.633,-11.4957 -1.901,-14.5753 -2.298,-5.6512 -7.46,-9.2204 -15.4922,-10.7192 -3.3652,-0.634 -8.5128,-0.9512 -15.4367,-0.9512 -11.5586,0 -19.6133,0.6883 -24.1609,2.0711 -5.582,1.6942 -9.2617,5.1262 -11.043,10.2942 -0.9922,2.8769 -1.4836,7.6679 -1.4836,14.3746 l 20.6379,0 c 0,-0.7481 0.0027,-1.3192 0.0027,-1.7137 0,-3.5789 1.0286,-5.8808 3.0825,-6.9058 1.4226,-0.7071 3.1406,-1.0782 5.1597,-1.1223 l 7.5879,0 c 3.8711,0 6.343,0.198 7.4082,0.5961 1.8977,0.7461 3.1426,1.9469 3.7375,3.609 0.3164,1.023 0.4727,2.3472 0.4727,3.9675 0,3.629 -1.3242,5.8368 -3.9695,6.629 -0.9895,0.3125 -5.5911,0.7488 -13.8047,1.3015 -6.5969,0.4707 -11.1789,0.9238 -13.7446,1.3629 -6.7566,1.2637 -11.2593,3.8631 -13.5066,7.8091 -1.9758,3.353 -2.9629,8.426 -2.9629,15.212 0,5.168 0.5332,9.312 1.6008,12.429 1.0683,3.118 2.789,5.485 5.164,7.103 3.4793,2.486 7.9305,3.945 13.3497,4.381 4.5093,0.393 9.5117,0.594 15.0132,0.594 8.6621,0 14.8352,-0.498 18.5149,-1.485 8.981,-2.413 13.471,-9.172 13.471,-20.279 0,-0.911 -0.067,-2.273 -0.2,-4.094"
       id="path66"
       style="fill:#2350a9;fill-opacity:1;fill-rule:nonzero;stroke:none"
       inkscape:connector-curvature="0" /><path
       d="m 221.045,103.893 13.83,0 c 4.385,0.158 7.052,0.495 8.012,1.023 1.311,0.72 2.191,2.164 2.629,4.329 0.28,1.441 0.42,3.584 0.42,6.428 0,3.488 -0.278,6.072 -0.837,7.759 -0.798,2.364 -2.709,3.804 -5.736,4.327 -0.598,0.079 -2.031,0.121 -4.301,0.121 l -14.017,0 0,-23.987 z m -22.184,-40.4032 0,82.4282 41.331,0 c 5.669,0 9.995,-0.463 12.967,-1.388 6.798,-2.13 11.359,-6.491 13.695,-13.082 1.206,-3.459 1.809,-8.667 1.809,-15.621 0,-8.361 -0.669,-14.37 -1.992,-18.0286 -2.651,-7.2336 -8.108,-11.4007 -16.348,-12.4804 -0.969,-0.1621 -5.092,-0.3071 -12.369,-0.4231 l -3.683,-0.123 -13.226,0 0,-21.2821 -22.184,0"
       id="path68"
       style="fill:#2350a9;fill-opacity:1;fill-rule:nonzero;stroke:none"
       inkscape:connector-curvature="0" /><path
       d="m 311.612,93.7941 -10.394,35.7309 -10.087,-35.7309 20.481,0 z m 4.406,-16.0582 -29.661,0 -3.985,-14.2461 -22.952,0 24.766,82.4282 33.464,0 25.07,-82.4282 -22.47,0 -4.232,14.2461"
       id="path70"
       style="fill:#2350a9;fill-opacity:1;fill-rule:nonzero;stroke:none"
       inkscape:connector-curvature="0" /><path
       d="m 168.242,134.321 c 9.15,0 17.316,-4.215 22.684,-10.817 l 4.782,10.253 c -7.479,7.069 -17.658,11.427 -28.885,11.427 -17.48,0 -32.433,-10.557 -38.57,-25.501 l -9.325,0 -5.506,-11.804 11.996,0 c -0.09,-1.095 -0.148,-2.191 -0.148,-3.309 0,-1.353 0.07,-2.69 0.204,-4.011 l -6.029,0 -5.505,-11.8078 14.599,0 c 6.312,-14.566 21.078,-24.7922 38.284,-24.7922 8.671,0 16.717,2.598 23.379,7.0359 l 0,14.4711 c -5.365,-6.1082 -13.212,-9.968 -21.96,-9.968 -10.226,0 -19.221,5.2731 -24.459,13.2532 l 30.571,0 5.505,11.8078 -40.574,0 c -0.209,1.421 -0.321,2.873 -0.321,4.352 0,1 0.052,1.99 0.148,2.968 l 44.159,0 5.505,11.804 -45.845,0 c 5.07,8.75 14.505,14.638 25.311,14.638"
       id="path72"
       style="fill:#fbbc09;fill-opacity:1;fill-rule:nonzero;stroke:none"
       inkscape:connector-curvature="0" /><path
       d="m 142.931,119.329 45.845,0 -0.321,0.504 -5.503,-11.805 0.319,0.204 -44.478,0 -0.034,-0.321 c -0.099,-0.996 -0.149,-2.006 -0.149,-3 0,-1.461 0.11,-2.944 0.325,-4.406 l 0.046,-0.301 40.878,0 -0.319,0.503 -5.506,-11.8054 0.32,0.2043 -31.228,0 0.361,-0.5461 c 5.509,-8.402 14.764,-13.411 24.755,-13.411 8.493,0 16.595,3.6731 22.228,10.084 l -0.622,0.2332 0,-14.4711 0.156,0.2922 c -6.85,-4.5609 -14.864,-6.973 -23.181,-6.973 -16.591,0 -31.49,9.648 -37.957,24.5797 l -0.094,0.2121 -14.832,0 0.324,-0.5059 5.503,11.809 -0.322,-0.205 6.419,0 -0.039,0.391 c -0.133,1.334 -0.202,2.674 -0.202,3.975 0,1.001 0.049,2.074 0.148,3.278 l 0.031,0.384 -12.38,0 0.319,-0.505 5.507,11.807 -0.32,-0.205 9.563,0 0.089,0.219 c 3.03,7.378 8.184,13.668 14.902,18.195 6.881,4.634 14.954,7.084 23.341,7.084 10.741,0 20.911,-4.02 28.641,-11.326 l -0.079,0.408 -4.779,-10.256 0.595,0.074 c -5.66,6.958 -14.026,10.949 -22.959,10.949 -10.508,0 -20.322,-5.677 -25.62,-14.816 l -0.308,-0.531 0.617,0 z m 25.311,14.639 c 8.719,0 16.886,-3.897 22.408,-10.688 l 0.357,-0.439 0.242,0.512 4.78,10.254 0.107,0.232 -0.184,0.177 c -7.861,7.43 -18.206,11.522 -29.129,11.522 -8.529,0 -16.737,-2.493 -23.737,-7.209 -6.835,-4.603 -12.077,-11.006 -15.158,-18.512 l 0.325,0.221 -9.552,0 -0.095,-0.205 -5.504,-11.805 -0.235,-0.505 12.551,0 -0.353,0.384 c -0.101,-1.225 -0.149,-2.314 -0.149,-3.337 0,-1.325 0.067,-2.688 0.204,-4.046 l 0.354,0.387 -6.253,0 -0.095,-0.204 -5.507,-11.8054 -0.233,-0.5039 15.153,0 -0.324,0.214 c 6.581,-15.1898 21.736,-25.0066 38.608,-25.0066 8.458,0 16.608,2.4519 23.575,7.0937 l 0.157,0.1051 0,15.6027 -0.619,-0.707 c -5.497,-6.2566 -13.404,-9.8445 -21.694,-9.8445 -9.753,0 -18.786,4.8949 -24.164,13.0926 l -0.295,-0.55 30.797,0 0.095,0.2023 5.506,11.809 0.235,0.502 -41.131,0 0.352,-0.301 c -0.21,1.429 -0.318,2.875 -0.318,4.301 0,0.971 0.049,1.957 0.147,2.932 l -0.354,-0.32 44.388,0 0.093,0.204 5.505,11.807 0.237,0.504 -46.404,0 0.304,-0.533 c 5.17,8.921 14.753,14.463 25.007,14.463"
       id="path74"
       style="fill:#2350a9;fill-opacity:1;fill-rule:nonzero;stroke:none"
       inkscape:connector-curvature="0" /></g><text
     xml:space="preserve"
     style="font-size:16px;font-style:normal;font-weight:normal;text-align:center;line-height:125%;letter-spacing:0px;word-spacing:0px;text-anchor:middle;fill:#000000;fill-opacity:1;stroke:none;font-family:Sans"
     x="64.117188"
     y="89.17231"
     id="text2991"
     sodipodi:linespacing="125%"><tspan
       sodipodi:role="line"
       id="tspan2993"
       x="64.117188"
       y="89.17231"
       style="font-weight:bold;-inkscape-font-specification:Sans Bold">DIRECT</tspan><tspan
       sodipodi:role="line"
       x="64.117188"
       y="109.17231"
       id="tspan2995"
       style="font-weight:bold;-inkscape-font-specification:Sans Bold">DEBIT</tspan></text>
</svg>
